<svg width="22" height="22" viewBox="0 0 22 22" fill="none" xmlns="http://www.w3.org/2000/svg">
<path fill-rule="evenodd" clip-rule="evenodd" d="M11 20.5C8.632 20.5 6.979 20.498 5.713 20.359C4.473 20.223 3.794 19.971 3.298 19.599C2.95815 19.3438 2.65615 19.0418 2.401 18.702C2.029 18.206 1.777 17.526 1.641 16.288C1.502 15.022 1.5 13.368 1.5 11C1.5 8.632 1.502 6.979 1.641 5.713C1.777 4.473 2.029 3.794 2.401 3.298C2.65622 2.9585 2.95821 2.65684 3.298 2.402C3.794 2.029 4.474 1.777 5.713 1.642C6.979 1.502 8.632 1.5 11 1.5C11.732 1.5 12.395 1.5 13 1.505V20.495C12.395 20.5 11.732 20.5 11 20.5ZM14.5 20.47C15.177 20.45 15.765 20.416 16.288 20.359C17.526 20.223 18.206 19.971 18.702 19.599C19.042 19.344 19.343 19.042 19.599 18.702C19.971 18.206 20.223 17.526 20.359 16.288C20.498 15.022 20.5 13.368 20.5 11V10H14.5V20.47ZM20.49 8.5C20.477 7.382 20.443 6.477 20.359 5.713C20.223 4.473 19.971 3.794 19.599 3.298C19.3438 2.95851 19.0418 2.65685 18.702 2.402C18.206 2.029 17.526 1.777 16.287 1.642C15.693 1.58126 15.0969 1.5439 14.5 1.53V8.5H20.49ZM0 11C0 6.332 1.19209e-07 3.998 1.202 2.398C1.54189 1.94493 1.94421 1.54227 2.397 1.202C3.998 1.19209e-07 6.332 0 11 0C15.668 0 18.002 1.19209e-07 19.602 1.202C20.0551 1.54219 20.4578 1.94486 20.798 2.398C22 3.998 22 6.332 22 11C22 15.668 22 18.002 20.798 19.603C20.458 20.056 20.056 20.458 19.603 20.798C18.002 22 15.668 22 11 22C6.332 22 3.998 22 2.397 20.798C1.94428 20.458 1.54196 20.0557 1.202 19.603C1.19209e-07 18.002 0 15.668 0 11Z" fill="white"/>
</svg>
