<svg width="22" height="22" viewBox="0 0 22 22" fill="none" xmlns="http://www.w3.org/2000/svg">
<path fill-rule="evenodd" clip-rule="evenodd" d="M11.766 20.463H10.234C8.224 20.463 6.824 20.461 5.74 20.358C4.68 20.256 4.08 20.068 3.632 19.789C3.03971 19.4224 2.5406 18.9233 2.174 18.331C1.896 17.882 1.707 17.283 1.605 16.223C1.502 15.139 1.5 13.738 1.5 11.729C1.5 9.95603 1.518 9.40602 1.676 8.92702C1.773 8.63202 1.908 8.35203 2.079 8.09303C2.357 7.67203 2.778 7.31703 4.169 6.21703L7.414 3.64903C8.41 2.86103 9.073 2.33903 9.622 1.98703C10.146 1.65103 10.45 1.54903 10.7 1.51903C10.8993 1.49494 11.1007 1.49494 11.3 1.51903C11.55 1.54903 11.854 1.65103 12.378 1.98703C12.928 2.34003 13.59 2.86103 14.586 3.64903L17.832 6.21703C19.222 7.31703 19.642 7.67203 19.921 8.09303C20.091 8.35203 20.227 8.63303 20.324 8.92702C20.482 9.40702 20.5 9.95703 20.5 11.729C20.5 13.739 20.498 15.139 20.395 16.223C20.293 17.283 20.105 17.883 19.826 18.331C19.4594 18.9233 18.9603 19.4224 18.368 19.789C17.919 20.067 17.32 20.256 16.26 20.358C15.176 20.461 13.776 20.463 11.766 20.463ZM0 11.729C0 10.056 0 9.21902 0.25 8.45802C0.39 8.03703 0.583 7.63603 0.827 7.26703C1.269 6.59703 1.925 6.07803 3.237 5.04003L6.484 2.47303C8.429 0.934026 9.402 0.165025 10.519 0.0290254C10.8385 -0.00967515 11.1615 -0.00967515 11.481 0.0290254C12.598 0.165025 13.571 0.934026 15.516 2.47303L18.762 5.04003C20.075 6.07803 20.731 6.59703 21.172 7.26703C21.4162 7.63639 21.6102 8.03656 21.749 8.45703C22 9.21903 22 10.056 22 11.729C22 15.689 22 17.669 21.102 19.121C20.6132 19.9108 19.9477 20.5762 19.158 21.065C17.706 21.963 15.726 21.963 11.766 21.963H10.234C6.274 21.963 4.294 21.963 2.842 21.065C2.05227 20.5762 1.38681 19.9108 0.898 19.121C-2.38419e-07 17.669 0 15.689 0 11.729ZM9.595 10.666C10.0277 10.4363 10.5101 10.3162 11 10.3162C11.4899 10.3162 11.9723 10.4363 12.405 10.666C12.925 10.942 13.25 11.482 13.25 12.071V16.914H8.75V12.071C8.75 11.482 9.075 10.941 9.595 10.666ZM13.109 9.34103C11.79 8.64103 10.209 8.64103 8.891 9.34103C8.39536 9.60417 7.98074 9.99733 7.69163 10.4783C7.40253 10.9592 7.24985 11.5099 7.25 12.071V17.163C7.25 17.853 7.81 18.413 8.5 18.413H13.5C14.19 18.413 14.75 17.853 14.75 17.163V12.07C14.7502 11.509 14.5977 10.9584 14.3088 10.4775C14.0199 9.99652 13.6055 9.60331 13.11 9.34002L13.109 9.34103Z" fill="white"/>
</svg>
