<svg width="16" height="18" viewBox="0 0 16 18" fill="none" xmlns="http://www.w3.org/2000/svg">
<path fill-rule="evenodd" clip-rule="evenodd" d="M10.0801 2.03202C12.5415 2.94021 14.2345 5.41361 14.2345 8.13819V9.72794C14.2345 10.2671 14.4095 10.7998 14.7226 11.2776C15.4337 12.3587 15.8711 13.5968 15.997 14.885C16.0057 14.9751 15.9954 15.0661 15.9669 15.152C15.9384 15.2379 15.8923 15.3169 15.8314 15.3839C15.7706 15.4509 15.6965 15.5045 15.6138 15.5412C15.5311 15.5778 15.4417 15.5968 15.3512 15.5968H10.8551C10.738 16.2697 10.3875 16.8797 9.86524 17.3193C9.34296 17.759 8.68243 18 8 18C7.31757 18 6.65704 17.759 6.13476 17.3193C5.61248 16.8797 5.26196 16.2697 5.14494 15.5968H0.648791C0.558338 15.5968 0.468892 15.5778 0.386191 15.5412C0.303489 15.5045 0.229357 15.4509 0.16855 15.3839C0.107743 15.3169 0.0616039 15.2379 0.0330913 15.152C0.00457865 15.0661 -0.00567766 14.9751 0.00298031 14.885C0.128545 13.5966 0.565683 12.3582 1.27662 11.2768C1.58971 10.7998 1.76465 10.2671 1.76465 9.72794V7.90337C1.76465 6.61308 2.1641 5.35448 2.90806 4.30072C3.65202 3.24696 4.70394 2.44981 5.9191 2.01893C5.9358 1.47676 6.16313 0.962495 6.55277 0.585473C6.9424 0.208451 7.4636 -0.00158944 8.00555 9.05737e-06C8.5475 0.00160755 9.06746 0.214719 9.45487 0.594033C9.84227 0.973347 10.0666 1.48976 10.0801 2.03202ZM6.40959 15.5977C6.51513 15.9371 6.72636 16.2339 7.01242 16.4447C7.29849 16.6554 7.64438 16.7691 7.99959 16.7691C8.3548 16.7691 8.7007 16.6554 8.98676 16.4447C9.27282 16.2339 9.48405 15.9371 9.58959 15.5977H6.40959ZM2.99088 7.90337C2.99089 7.23203 3.12562 6.56754 3.38709 5.94931C3.64855 5.33108 4.03142 4.77171 4.51297 4.30438C4.99453 3.83706 5.56496 3.4713 6.19043 3.22882C6.8159 2.98633 7.48366 2.87205 8.15409 2.89276C10.8673 2.97458 13.0083 5.35552 13.0083 8.13737V9.72794C13.0083 10.5347 13.2699 11.2989 13.6974 11.951C14.1805 12.6855 14.5156 13.5073 14.6841 14.3704H1.31504C1.48354 13.5073 1.81871 12.6855 2.30174 11.951C2.72928 11.2989 2.99088 10.5355 2.99088 9.72794V7.90337Z" fill="#666666"/>
</svg>
