<svg width="24" height="24" viewBox="0 0 24 24" fill="none" xmlns="http://www.w3.org/2000/svg">
<path fill-rule="evenodd" clip-rule="evenodd" d="M10.9941 2.41452C11.6276 2.09783 12.3734 2.09783 13.0068 2.41452L19.9639 5.89304C20.7261 6.27415 21.208 7.05353 21.208 7.90574V16.0952C21.2079 16.9473 20.726 17.7258 19.9639 18.1069L13.0068 21.5864C12.3735 21.9031 11.6275 21.903 10.9941 21.5864L4.03711 18.1069C3.27494 17.7258 2.79311 16.9473 2.79297 16.0952V7.90574C2.79301 7.05353 3.27487 6.27415 4.03711 5.89304L10.9941 2.41452ZM13.0068 11.5434C12.9232 11.5852 12.837 11.6201 12.75 11.6509V20.0376L19.293 16.7661C19.5469 16.6391 19.7079 16.3791 19.708 16.0952V8.19187L13.0068 11.5434ZM4.29297 16.0952C4.29311 16.3791 4.45403 16.6391 4.70801 16.7661L11.25 20.0366V11.6509C11.1633 11.6202 11.0775 11.5851 10.9941 11.5434L4.29297 8.19187V16.0952ZM12.3359 3.75632C12.1248 3.65076 11.8762 3.65077 11.665 3.75632L5.21973 6.97898L11.665 10.2016C11.8761 10.3071 12.1249 10.3071 12.3359 10.2016L18.7803 6.978L12.3359 3.75632Z" fill="#504040"/>
</svg>
