<svg width="24" height="24" viewBox="0 0 24 24" fill="none" xmlns="http://www.w3.org/2000/svg">
<path d="M10.166 19.7915H5.58203C5.21744 19.7913 4.86786 19.6463 4.61005 19.3885C4.35225 19.1307 4.2073 18.7811 4.20703 18.4165V13.8325C4.20703 13.7109 4.25534 13.5943 4.34132 13.5083C4.42731 13.4223 4.54393 13.374 4.66553 13.374C4.78713 13.374 4.90375 13.4223 4.98974 13.5083C5.07572 13.5943 5.12403 13.7109 5.12403 13.8325V18.4165C5.12456 18.5378 5.17298 18.654 5.25876 18.7398C5.34454 18.8256 5.46072 18.874 5.58203 18.8745H10.166C10.2876 18.8745 10.4043 18.9228 10.4902 19.0088C10.5762 19.0948 10.6245 19.2114 10.6245 19.333C10.6245 19.4546 10.5762 19.5712 10.4902 19.6572C10.4043 19.7432 10.2876 19.7915 10.166 19.7915Z" fill="black"/>
<path d="M4.61085 19.389C4.56828 19.3465 4.53451 19.296 4.51147 19.2404C4.48842 19.1848 4.47656 19.1252 4.47656 19.065C4.47656 19.0048 4.48842 18.9452 4.51147 18.8896C4.53451 18.8341 4.56828 18.7835 4.61085 18.741L9.84285 13.509C9.92878 13.4231 10.0453 13.3748 10.1669 13.3748C10.2884 13.3748 10.4049 13.4231 10.4909 13.509C10.5768 13.5949 10.6251 13.7115 10.6251 13.833C10.6251 13.9545 10.5768 14.0711 10.4909 14.157L5.25885 19.39C5.21632 19.4326 5.16581 19.4664 5.11022 19.4894C5.05462 19.5124 4.99503 19.5243 4.93485 19.5243C4.87467 19.5243 4.81508 19.5124 4.75949 19.4894C4.7039 19.4664 4.65339 19.4316 4.61085 19.389ZM19.3329 10.625C19.2114 10.625 19.0949 10.5768 19.009 10.4909C18.9231 10.405 18.8749 10.2885 18.8749 10.167V5.58301C18.8746 5.46162 18.8263 5.34528 18.7404 5.25944C18.6546 5.17361 18.5382 5.12527 18.4169 5.12501H13.8329C13.7113 5.12501 13.5946 5.0767 13.5086 4.99072C13.4227 4.90473 13.3744 4.78811 13.3744 4.66651C13.3744 4.54491 13.4227 4.42828 13.5086 4.3423C13.5946 4.25631 13.7113 4.20801 13.8329 4.20801H18.4169C19.1749 4.20801 19.7919 4.82501 19.7919 5.58301V10.167C19.7919 10.2272 19.78 10.2869 19.7569 10.3425C19.7338 10.3981 19.7 10.4487 19.6574 10.4912C19.6147 10.5338 19.5641 10.5675 19.5084 10.5904C19.4527 10.6134 19.3931 10.6251 19.3329 10.625Z" fill="black"/>
<path d="M13.5107 10.4901C13.4251 10.4043 13.377 10.2879 13.377 10.1666C13.377 10.0453 13.4251 9.92898 13.5107 9.84312L18.7407 4.61112C18.7833 4.56851 18.8338 4.53469 18.8894 4.5116C18.9451 4.48852 19.0047 4.47661 19.0649 4.47656C19.1251 4.47652 19.1847 4.48833 19.2404 4.51133C19.2961 4.53433 19.3466 4.56807 19.3892 4.61062C19.4319 4.65317 19.4657 4.70369 19.4888 4.75931C19.5118 4.81493 19.5238 4.87455 19.5238 4.93477C19.5238 4.99499 19.512 5.05462 19.489 5.11028C19.466 5.16593 19.4323 5.21651 19.3897 5.25912L14.1577 10.4911C14.1152 10.5337 14.0647 10.5675 14.0091 10.5905C13.9535 10.6136 13.8939 10.6254 13.8337 10.6254C13.7736 10.6254 13.714 10.6136 13.6584 10.5905C13.6028 10.5675 13.5523 10.5337 13.5097 10.4911L13.5107 10.4901Z" fill="black"/>
<path fill-rule="evenodd" clip-rule="evenodd" d="M17.133 1.917H6.867C5.825 1.917 5.098 1.917 4.533 1.964C3.978 2.009 3.66 2.094 3.418 2.216C2.90045 2.47967 2.47967 2.90045 2.216 3.418C2.093 3.66 2.009 3.978 1.964 4.533C1.917 5.098 1.917 5.825 1.917 6.867V17.133C1.917 18.175 1.917 18.901 1.964 19.467C2.009 20.022 2.094 20.34 2.216 20.582C2.47967 21.0996 2.90045 21.5203 3.418 21.784C3.66 21.907 3.978 21.991 4.533 22.036C5.098 22.083 5.825 22.083 6.867 22.083H17.133C18.175 22.083 18.901 22.083 19.467 22.036C20.022 21.991 20.34 21.906 20.582 21.784C21.0996 21.5203 21.5203 21.0996 21.784 20.582C21.907 20.34 21.991 20.022 22.036 19.467C22.083 18.901 22.083 18.175 22.083 17.133V6.867C22.083 5.825 22.083 5.098 22.036 4.533C21.991 3.978 21.906 3.66 21.784 3.418C21.5203 2.90045 21.0996 2.47967 20.582 2.216C20.34 2.093 20.022 2.009 19.467 1.964C18.901 1.917 18.175 1.917 17.133 1.917ZM1.4 3.002C1 3.786 1 4.813 1 6.867V17.133C1 19.187 1 20.213 1.4 20.998C1.751 21.688 2.312 22.248 3.002 22.6C3.786 23 4.813 23 6.867 23H17.133C19.187 23 20.213 23 20.998 22.6C21.6877 22.2484 22.2484 21.6877 22.6 20.998C23 20.214 23 19.187 23 17.133V6.867C23 4.813 23 3.787 22.6 3.002C22.2485 2.31229 21.6877 1.75152 20.998 1.4C20.214 1 19.187 1 17.133 1H6.867C4.813 1 3.787 1 3.002 1.4C2.312 1.751 1.752 2.312 1.4 3.002Z" fill="black"/>
</svg>
