<svg width="22" height="24" viewBox="0 0 22 24" fill="none" xmlns="http://www.w3.org/2000/svg">
<path fill-rule="evenodd" clip-rule="evenodd" d="M11.25 1.5H1.5C1.1025 1.5 0.720002 1.658 0.440002 1.93925C0.157502 2.22075 0 2.60225 0 3V22.5C0 23.3285 0.6725 24 1.5 24H16.5C17.3275 24 18 23.3285 18 22.5C18 19.9673 18 13.5 18 13.5C18 13.224 17.775 13 17.5 13C17.225 13 17 13.224 17 13.5V22.5C17 22.7763 16.7775 23 16.5 23H1.5C1.2225 23 1 22.7763 1 22.5C1 18.897 1 6.603 1 3C1 2.8675 1.05252 2.74025 1.14752 2.6465C1.24002 2.55275 1.3675 2.5 1.5 2.5H11.25C11.525 2.5 11.75 2.276 11.75 2C11.75 1.724 11.525 1.5 11.25 1.5ZM3.875 18.5H14.125C14.4 18.5 14.625 18.276 14.625 18C14.625 17.724 14.4 17.5 14.125 17.5H3.875C3.6 17.5 3.375 17.724 3.375 18C3.375 18.276 3.6 18.5 3.875 18.5ZM3.875 15.75H14.125C14.4 15.75 14.625 15.526 14.625 15.25C14.625 14.974 14.4 14.75 14.125 14.75H3.875C3.6 14.75 3.375 14.974 3.375 15.25C3.375 15.526 3.6 15.75 3.875 15.75ZM8.5 7.25H4C3.725 7.25 3.5 7.474 3.5 7.75C3.5 8.026 3.725 8.25 4 8.25H5.75V13.25C5.75 13.526 5.975 13.75 6.25 13.75C6.525 13.75 6.75 13.526 6.75 13.25V8.25H8.5C8.775 8.25 9 8.026 9 7.75C9 7.474 8.775 7.25 8.5 7.25ZM9.125 13.25H14.125C14.4 13.25 14.625 13.026 14.625 12.75C14.625 12.474 14.4 12.25 14.125 12.25H9.125C8.85 12.25 8.625 12.474 8.625 12.75C8.625 13.026 8.85 13.25 9.125 13.25ZM19.46 6.8265C19.3875 6.63025 19.2 6.5 18.9925 6.5C18.7825 6.5 18.595 6.63025 18.5225 6.8265L17.9275 8.43575L16.3175 9.031C16.1225 9.10375 15.9925 9.29075 15.9925 9.5C15.9925 9.70925 16.1225 9.89625 16.3175 9.969L17.9275 10.5643L18.5225 12.1735C18.595 12.3698 18.7825 12.5 18.9925 12.5C19.2 12.5 19.3875 12.3698 19.46 12.1735L20.055 10.5643L21.665 9.969C21.8625 9.89625 21.9925 9.70925 21.9925 9.5C21.9925 9.29075 21.8625 9.10375 21.665 9.031L20.055 8.43575L19.46 6.8265ZM10.5 10.75H12.5C12.775 10.75 13 10.526 13 10.25C13 9.974 12.775 9.75 12.5 9.75H10.5C10.225 9.75 10 9.974 10 10.25C10 10.526 10.225 10.75 10.5 10.75ZM18.9925 8.44075L19.1975 8.99825C19.2475 9.13525 19.3575 9.243 19.4925 9.29375L20.05 9.5L19.4925 9.70625C19.3575 9.757 19.2475 9.86475 19.1975 10.0018L18.9925 10.5592L18.785 10.0018C18.735 9.86475 18.6275 9.757 18.49 9.70625L17.9325 9.5L18.49 9.29375C18.6275 9.243 18.735 9.13525 18.785 8.99825L18.9925 8.44075ZM14.97 0.3265C14.8975 0.13025 14.71 0 14.5 0C14.29 0 14.1025 0.13025 14.03 0.3265L12.8275 3.578L9.57751 4.781C9.38001 4.85375 9.25 5.04075 9.25 5.25C9.25 5.45925 9.38001 5.64625 9.57751 5.719L12.8275 6.922L14.03 10.1735C14.1025 10.3698 14.29 10.5 14.5 10.5C14.71 10.5 14.8975 10.3698 14.97 10.1735L16.1725 6.922L19.4225 5.719C19.62 5.64625 19.75 5.45925 19.75 5.25C19.75 5.04075 19.62 4.85375 19.4225 4.781L16.1725 3.578L14.97 0.3265ZM14.5 1.94075L15.315 4.1405C15.365 4.2775 15.4725 4.38525 15.61 4.436L17.81 5.25L15.61 6.064C15.4725 6.11475 15.365 6.2225 15.315 6.3595L14.5 8.55925L13.685 6.3595C13.635 6.2225 13.5275 6.11475 13.39 6.064L11.19 5.25L13.39 4.436C13.5275 4.38525 13.635 4.2775 13.685 4.1405L14.5 1.94075ZM10.5 8.25H11.5C11.775 8.25 12 8.026 12 7.75C12 7.474 11.775 7.25 11.5 7.25H10.5C10.225 7.25 10 7.474 10 7.75C10 8.026 10.225 8.25 10.5 8.25ZM18.5 1.75H18C17.725 1.75 17.5 1.974 17.5 2.25C17.5 2.526 17.725 2.75 18 2.75H18.5V3.25C18.5 3.526 18.725 3.75 19 3.75C19.275 3.75 19.5 3.526 19.5 3.25V2.75H20C20.275 2.75 20.5 2.526 20.5 2.25C20.5 1.974 20.275 1.75 20 1.75H19.5V1.25C19.5 0.974 19.275 0.75 19 0.75C18.725 0.75 18.5 0.974 18.5 1.25V1.75Z" fill="black"/>
</svg>
