<svg width="24" height="24" viewBox="0 0 24 24" fill="none" xmlns="http://www.w3.org/2000/svg">
<g clip-path="url(#clip0_3323_15836)">
<path d="M14.0704 20.9385V16.5608C14.0704 15.5595 14.8823 14.7481 15.8836 14.7481H18.4313V0.46875H3.09766V20.9385H14.0704Z" fill="white"/>
<path d="M22.7218 16.5607V21.7185C22.7218 22.7197 21.9103 23.5312 20.909 23.5312H15.8835C14.8822 23.5312 14.0703 22.7198 14.0703 21.7185V16.5607C14.0703 15.5595 14.8822 14.748 15.8835 14.748H20.909C21.9103 14.748 22.7218 15.5595 22.7218 16.5607Z" fill="white"/>
<path d="M20.909 14.2793H18.8999V7.51763H19.8795V7.92867C19.8795 8.18756 20.0894 8.39742 20.3482 8.39742C20.6071 8.39742 20.817 8.18756 20.817 7.92867V6.16908C20.817 5.91019 20.6071 5.70033 20.3482 5.70033C20.0894 5.70033 19.8795 5.91019 19.8795 6.16908V6.58013H18.8999V0.46875C18.8999 0.209859 18.69 0 18.4312 0H3.09758C2.83869 0 2.62883 0.209859 2.62883 0.46875V6.58013H1.74805V6.16908C1.74805 5.91019 1.53819 5.70033 1.2793 5.70033C1.02041 5.70033 0.810547 5.91019 0.810547 6.16908V7.92867C0.810547 8.18756 1.02041 8.39742 1.2793 8.39742C1.53819 8.39742 1.74805 8.18756 1.74805 7.92867V7.51763H2.62883V20.9385C2.62883 21.1974 2.83869 21.4073 3.09758 21.4073H7.05345C7.31234 21.4073 7.5222 21.1974 7.5222 20.9385C7.5222 20.6797 7.31234 20.4698 7.05345 20.4698H3.56633V7.51763H17.9624V14.2793H15.8834C14.6252 14.2793 13.6015 15.3028 13.6015 16.5608V20.4698H11.1785C10.9196 20.4698 10.7097 20.6797 10.7097 20.9385C10.7097 21.1974 10.9196 21.4073 11.1785 21.4073H13.6015V21.7185C13.6015 22.9765 14.6252 24 15.8834 24H20.909C22.167 24 23.1905 22.9766 23.1905 21.7185V16.5608C23.1905 15.3028 22.167 14.2793 20.909 14.2793ZM3.56633 6.58013V0.9375H17.9624V6.58013H3.56633ZM22.253 21.7185C22.253 22.4596 21.6501 23.0625 20.909 23.0625H15.8834C15.1422 23.0625 14.539 22.4596 14.539 21.7185V16.5608C14.539 15.8197 15.1421 15.2168 15.8834 15.2168H20.909C21.6501 15.2168 22.253 15.8197 22.253 16.5608V21.7185Z" fill="black"/>
<path d="M17.255 21.1985H16.3398V20.3066C16.3398 20.0478 16.1299 19.8379 15.8711 19.8379C15.6123 19.8379 15.4023 20.0478 15.4023 20.3066V21.5058C15.4023 21.8533 15.685 22.1361 16.0326 22.1361H17.255C17.5138 22.1361 17.7237 21.9262 17.7237 21.6673C17.7237 21.4084 17.5139 21.1985 17.255 21.1985Z" fill="black"/>
<path d="M20.7461 16.1631H19.5C19.2412 16.1631 19.0312 16.3729 19.0312 16.6318C19.0312 16.8907 19.2412 17.1006 19.5 17.1006H20.4388V18.2676C20.4388 18.5265 20.6487 18.7363 20.9076 18.7363C21.1664 18.7363 21.3763 18.5265 21.3763 18.2676V16.7934C21.3764 16.4458 21.0936 16.1631 20.7461 16.1631Z" fill="black"/>
<path d="M20.884 19.7812C20.6251 19.7812 20.4152 19.9911 20.4152 20.25V21.1419H19.5C19.2412 21.1419 19.0312 21.3518 19.0312 21.6106C19.0312 21.8695 19.2412 22.0794 19.5 22.0794H20.7224C21.0699 22.0794 21.3527 21.7966 21.3527 21.4491V20.25C21.3527 19.9911 21.1428 19.7812 20.884 19.7812Z" fill="black"/>
<path d="M17.2552 16.1055H16.0091C15.6616 16.1055 15.3789 16.3882 15.3789 16.7358V18.21C15.3789 18.4689 15.5888 18.6787 15.8477 18.6787C16.1065 18.6787 16.3164 18.4689 16.3164 18.21V17.043H17.2552C17.514 17.043 17.7239 16.8331 17.7239 16.5742C17.7239 16.3153 17.514 16.1055 17.2552 16.1055Z" fill="black"/>
<path d="M15.385 3.14062H6.24414C5.98525 3.14062 5.77539 3.35048 5.77539 3.60938C5.77539 3.86827 5.98525 4.07812 6.24414 4.07812H15.3849C15.6437 4.07812 15.8537 3.86827 15.8537 3.60938C15.8537 3.35048 15.6438 3.14062 15.385 3.14062Z" fill="black"/>
<path d="M6.24414 10.9463H15.3849C15.6437 10.9463 15.8537 10.7364 15.8537 10.4775C15.8537 10.2186 15.6437 10.0088 15.3849 10.0088H6.24414C5.98525 10.0088 5.77539 10.2186 5.77539 10.4775C5.77539 10.7364 5.98525 10.9463 6.24414 10.9463Z" fill="black"/>
<path d="M6.24414 14.3799H12.6565C12.9153 14.3799 13.1252 14.17 13.1252 13.9111C13.1252 13.6522 12.9153 13.4424 12.6565 13.4424H6.24414C5.98525 13.4424 5.77539 13.6522 5.77539 13.9111C5.77539 14.17 5.98525 14.3799 6.24414 14.3799Z" fill="black"/>
<path d="M6.24414 17.8145H12.0136C12.2725 17.8145 12.4824 17.6046 12.4824 17.3457C12.4824 17.0868 12.2725 16.877 12.0136 16.877H6.24414C5.98525 16.877 5.77539 17.0868 5.77539 17.3457C5.77539 17.6046 5.98525 17.8145 6.24414 17.8145Z" fill="black"/>
<path d="M9.5619 20.7595C9.48508 20.5752 9.29373 20.4571 9.09451 20.472C8.89014 20.4872 8.71731 20.6368 8.67193 20.8365C8.58189 21.2328 9.02678 21.5478 9.37164 21.3396C9.56762 21.2212 9.64862 20.971 9.5619 20.7595Z" fill="black"/>
</g>
<defs>
<clipPath id="clip0_3323_15836">
<rect width="24" height="24" fill="white"/>
</clipPath>
</defs>
</svg>
