<svg width="24" height="24" viewBox="0 0 24 24" fill="none" xmlns="http://www.w3.org/2000/svg">
<path d="M8.74962 12.4551C11.0436 12.4552 12.6285 13.201 13.693 14.2549C14.7387 15.2905 15.2201 16.5611 15.444 17.5205C15.7649 18.8971 14.6064 19.8982 13.4244 19.8984H4.0758C2.89361 19.8984 1.73509 18.8973 2.05627 17.5205C2.28012 16.5611 2.76041 15.2905 3.80627 14.2549C4.87073 13.2009 6.45551 12.4552 8.74962 12.4551ZM15.2496 12.4551C17.5433 12.4552 19.1286 13.2012 20.193 14.2549C21.2386 15.2904 21.7201 16.5612 21.944 17.5205C22.2648 18.8969 21.1063 19.898 19.9244 19.8984H16.3883C16.6998 19.4734 16.9133 18.9688 16.9801 18.3984H19.9244C20.1333 18.3982 20.2988 18.3136 20.3932 18.2109C20.4788 18.1174 20.516 18.0033 20.483 17.8613C20.2964 17.0614 19.9125 16.0884 19.1383 15.3213C18.405 14.5952 17.2604 13.9938 15.4235 13.958C15.2234 13.6956 14.9993 13.4377 14.7486 13.1895C14.5136 12.9567 14.2598 12.7392 13.9889 12.5371C14.3831 12.4838 14.8031 12.4551 15.2496 12.4551ZM8.74962 13.9551C6.81048 13.9552 5.61813 14.5726 4.86193 15.3213C4.08726 16.0885 3.70292 17.0611 3.51623 17.8613C3.48313 18.0035 3.52111 18.1173 3.60705 18.2109C3.70157 18.3137 3.86664 18.3984 4.0758 18.3984H13.4244C13.6336 18.3983 13.7987 18.3138 13.8932 18.2109C13.979 18.1174 14.0161 18.0034 13.983 17.8613C13.7964 17.0613 13.4127 16.0884 12.6383 15.3213C11.8821 14.5725 10.6889 13.9552 8.74962 13.9551ZM8.80431 4.10156C10.8458 4.10191 12.5006 5.75728 12.5006 7.79883C12.5004 9.84023 10.8457 11.4948 8.80431 11.4951C6.76265 11.4951 5.10722 9.84045 5.10705 7.79883C5.10705 5.75706 6.76255 4.10156 8.80431 4.10156ZM15.3043 4.10156C17.3456 4.10217 19.0006 5.75744 19.0006 7.79883C19.0004 9.84007 17.3455 11.4945 15.3043 11.4951C14.4693 11.495 13.6996 11.2169 13.0807 10.75C13.3729 10.3279 13.6037 9.8605 13.7613 9.36035C14.1581 9.75212 14.7027 9.99501 15.3043 9.99512C16.517 9.99451 17.5004 9.01164 17.5006 7.79883C17.5006 6.58586 16.5171 5.60217 15.3043 5.60156C14.7038 5.60167 14.1589 5.8427 13.7623 6.2334C13.6046 5.73354 13.3727 5.26664 13.0807 4.84473C13.6994 4.37822 14.4698 4.10165 15.3043 4.10156ZM8.80431 5.60156C7.59097 5.60156 6.60705 6.58549 6.60705 7.79883C6.60722 9.01202 7.59108 9.99512 8.80431 9.99512C10.0172 9.99476 11.0004 9.0118 11.0006 7.79883C11.0006 6.58571 10.0174 5.60191 8.80431 5.60156Z" fill="#504040"/>
</svg>
