<svg width="24" height="24" viewBox="0 0 24 24" fill="none" xmlns="http://www.w3.org/2000/svg">
<path d="M3.30899 17.489C3.74727 17.0788 4.18789 16.6687 4.62618 16.2585C5.31993 15.6116 6.01368 14.9624 6.70977 14.3155C6.87149 14.1655 7.03321 14.0155 7.19258 13.8632C6.86211 13.8632 6.5293 13.8632 6.19883 13.8632C6.65586 14.2827 7.11289 14.7023 7.56993 15.1218C8.29414 15.7874 9.02071 16.453 9.74493 17.1187C9.91133 17.2733 10.0801 17.4257 10.2465 17.5804C10.5184 17.8288 10.9754 17.8687 11.2402 17.5804C11.4887 17.3085 11.5285 16.8515 11.2402 16.5866C10.7832 16.1671 10.3262 15.7476 9.86914 15.328C9.14493 14.6624 8.41836 13.9968 7.69414 13.3312C7.52774 13.1765 7.35899 13.0241 7.19258 12.8694C6.9043 12.6069 6.48711 12.5999 6.19883 12.8694C5.76055 13.2796 5.31993 13.6898 4.88164 14.0999C4.18789 14.7468 3.49414 15.396 2.79805 16.0429C2.63633 16.1929 2.47461 16.3429 2.31524 16.4952C2.04571 16.746 2.04102 17.2382 2.31524 17.489C2.60352 17.7538 3.02071 17.7562 3.30899 17.489Z" fill="black"/>
<path d="M18.9945 16.0947C18.4367 15.5158 17.8812 14.9392 17.3234 14.3603C16.4352 13.4392 15.5492 12.5181 14.6609 11.597C14.457 11.3861 14.2555 11.1751 14.0516 10.9642C13.7797 10.683 13.332 10.7111 13.0578 10.9642C12.5633 11.4189 12.0664 11.8736 11.5719 12.3306C10.782 13.0548 9.99219 13.7814 9.20234 14.5056C9.02188 14.672 8.84141 14.8384 8.66094 15.0025C8.38906 15.2509 8.38906 15.7478 8.66094 15.9962C8.95156 16.2634 9.36641 16.2634 9.65469 15.9962C10.1492 15.5415 10.6461 15.0869 11.1406 14.6298C11.9305 13.9056 12.7203 13.179 13.5102 12.4548C13.6906 12.2884 13.8711 12.122 14.0516 11.958C13.7211 11.958 13.3883 11.958 13.0578 11.958C13.6156 12.5369 14.1711 13.1134 14.7289 13.6923C15.6172 14.6134 16.5031 15.5345 17.3914 16.4556C17.5953 16.6665 17.7969 16.8775 18.0008 17.0884C18.2563 17.3533 18.7414 17.365 18.9945 17.0884C19.2547 16.8025 19.2664 16.3783 18.9945 16.0947Z" fill="black"/>
<path d="M9.49938 10.5097C9.49938 10.5519 9.49703 10.5964 9.49235 10.6386C9.50172 10.5753 9.50875 10.5144 9.51813 10.4511C9.50406 10.5448 9.48063 10.6339 9.44547 10.723C9.46891 10.6667 9.49235 10.6105 9.51578 10.5542C9.49 10.6105 9.46422 10.6644 9.42906 10.7159C9.38688 10.7792 9.34 10.7862 9.46656 10.6714C9.44547 10.6925 9.42672 10.7183 9.40563 10.7394C9.39625 10.7487 9.34235 10.8026 9.33766 10.8003C9.33766 10.8003 9.50875 10.6808 9.38219 10.7628C9.33063 10.7956 9.27672 10.8237 9.22047 10.8495L9.38922 10.7792C9.30016 10.8144 9.2111 10.8378 9.11735 10.8519C9.18063 10.8425 9.24156 10.8355 9.30485 10.8261C9.21813 10.8355 9.13375 10.8355 9.04703 10.8261C9.11031 10.8355 9.17125 10.8425 9.23453 10.8519C9.14078 10.8378 9.05172 10.8144 8.96266 10.7792L9.13141 10.8495C9.07516 10.8237 9.02125 10.798 8.96969 10.7628C8.90641 10.7206 8.89938 10.6737 9.01422 10.8003C8.99313 10.7792 8.96735 10.7605 8.94625 10.7394C8.93688 10.73 8.88297 10.6761 8.88531 10.6714C8.88531 10.6714 9.00485 10.8425 8.92281 10.7159C8.89 10.6644 8.86188 10.6105 8.8361 10.5542C8.85953 10.6105 8.88297 10.6667 8.90641 10.723C8.87125 10.6339 8.84781 10.5448 8.83375 10.4511C8.84313 10.5144 8.85016 10.5753 8.85953 10.6386C8.85016 10.5519 8.85016 10.4675 8.85953 10.3808C8.85016 10.444 8.84313 10.505 8.83375 10.5683C8.84781 10.4745 8.87125 10.3855 8.90641 10.2964C8.88297 10.3526 8.85953 10.4089 8.8361 10.4651C8.86188 10.4089 8.88766 10.355 8.92281 10.3034C8.965 10.2401 9.01188 10.2331 8.88531 10.348C8.90641 10.3269 8.92516 10.3011 8.94625 10.28C8.95563 10.2706 9.00953 10.2167 9.01422 10.219C9.01422 10.219 8.84313 10.3386 8.96969 10.2565C9.02125 10.2237 9.07516 10.1956 9.13141 10.1698C9.07516 10.1933 9.01891 10.2167 8.96266 10.2401C9.05172 10.205 9.14078 10.1815 9.23453 10.1675C9.17125 10.1769 9.11031 10.1839 9.04703 10.1933C9.13375 10.1839 9.21813 10.1839 9.30485 10.1933C9.24156 10.1839 9.18063 10.1769 9.11735 10.1675C9.2111 10.1815 9.30016 10.205 9.38922 10.2401C9.33297 10.2167 9.27672 10.1933 9.22047 10.1698C9.27672 10.1956 9.33063 10.2214 9.38219 10.2565C9.44547 10.2987 9.4525 10.3456 9.33766 10.219C9.35875 10.2401 9.38453 10.2589 9.40563 10.28C9.415 10.2894 9.46891 10.3433 9.46656 10.348C9.46656 10.348 9.34703 10.1769 9.42906 10.3034C9.46188 10.355 9.49 10.4089 9.51578 10.4651C9.49235 10.4089 9.46891 10.3526 9.44547 10.2964C9.48063 10.3855 9.50406 10.4745 9.51813 10.5683C9.50875 10.505 9.50172 10.444 9.49235 10.3808C9.49703 10.4253 9.49938 10.4675 9.49938 10.5097C9.50406 10.8776 9.81813 11.2292 10.2025 11.2128C10.5775 11.1964 10.9127 10.9034 10.9056 10.5097C10.8939 9.75967 10.4228 9.11514 9.71735 8.8667C9.07985 8.6417 8.29703 8.85264 7.86813 9.3753C7.61969 9.67764 7.47672 10.0198 7.44625 10.4112C7.41813 10.7464 7.51422 11.1144 7.68766 11.4003C8.08375 12.0472 8.81735 12.3355 9.55094 12.1972C10.3431 12.0472 10.8916 11.2878 10.9033 10.5073C10.908 10.1394 10.5752 9.7878 10.2002 9.8042C9.81578 9.8253 9.50641 10.1159 9.49938 10.5097Z" fill="black"/>
<path d="M17.7891 18.4968C17.7891 18.539 17.7867 18.5835 17.782 18.6257C17.7914 18.5624 17.7984 18.5015 17.8078 18.4382C17.7937 18.532 17.7703 18.621 17.7352 18.7101C17.7586 18.6538 17.782 18.5976 17.8055 18.5413C17.7797 18.5976 17.7539 18.6515 17.7188 18.7031C17.6766 18.7663 17.6297 18.7734 17.7562 18.6585C17.7352 18.6796 17.7164 18.7054 17.6953 18.7265C17.6859 18.7359 17.632 18.7898 17.6273 18.7874C17.6273 18.7874 17.7984 18.6679 17.6719 18.7499C17.6203 18.7828 17.5664 18.8109 17.5102 18.8367L17.6789 18.7663C17.5922 18.8015 17.5008 18.8249 17.407 18.839C17.4703 18.8296 17.5312 18.8226 17.5945 18.8132C17.4398 18.8296 17.2828 18.8203 17.1281 18.8203C16.8 18.8203 16.4742 18.8203 16.1461 18.8203C15.0563 18.8203 13.9664 18.8203 12.8742 18.8203C11.55 18.8203 10.2258 18.8203 8.90156 18.8203C7.76016 18.8203 6.61875 18.8203 5.47734 18.8203C4.93594 18.8203 4.39453 18.8226 3.85312 18.8203C3.80391 18.8203 3.75703 18.8179 3.71016 18.8132C3.77344 18.8226 3.83438 18.8296 3.89766 18.839C3.80391 18.8249 3.71484 18.8015 3.62578 18.7663L3.79453 18.8367C3.73828 18.8109 3.68438 18.7851 3.63281 18.7499C3.56953 18.7078 3.5625 18.6609 3.67734 18.7874C3.65625 18.7663 3.63047 18.7476 3.60938 18.7265C3.6 18.7171 3.54609 18.6632 3.54844 18.6585C3.54844 18.6585 3.66797 18.8296 3.58594 18.7031C3.55313 18.6515 3.525 18.5976 3.49922 18.5413C3.52266 18.5976 3.54609 18.6538 3.56953 18.7101C3.53438 18.6234 3.51094 18.532 3.49687 18.4382C3.50625 18.5015 3.51328 18.5624 3.52266 18.6257C3.50859 18.5015 3.51562 18.3749 3.51562 18.2484C3.51562 17.9999 3.51562 17.7538 3.51562 17.5054C3.51562 16.6781 3.51562 15.8531 3.51562 15.0257C3.51562 14.0249 3.51562 13.0242 3.51562 12.0234C3.51562 11.1585 3.51562 10.2937 3.51562 9.42885C3.51562 9.02103 3.51094 8.61322 3.51562 8.20541C3.51562 8.15853 3.51797 8.114 3.52266 8.06713C3.51328 8.13041 3.50625 8.19135 3.49687 8.25463C3.51094 8.16088 3.53438 8.07182 3.56953 7.98275C3.54609 8.039 3.52266 8.09525 3.49922 8.1515C3.525 8.09525 3.55078 8.04135 3.58594 7.98978C3.62812 7.9265 3.675 7.91947 3.54844 8.03432C3.56953 8.01322 3.58828 7.98744 3.60938 7.96635C3.61875 7.95697 3.67266 7.90307 3.67734 7.90541C3.67734 7.90541 3.50625 8.02494 3.63281 7.94291C3.68438 7.9101 3.73828 7.88197 3.79453 7.85619C3.73828 7.87963 3.68203 7.90307 3.62578 7.9265C3.7125 7.89135 3.80391 7.86791 3.89766 7.85385C3.83438 7.86322 3.77344 7.87025 3.71016 7.87963C3.86484 7.86322 4.02187 7.8726 4.17656 7.8726H5.15859H8.43047H12.4031H15.8273C16.3687 7.8726 16.9102 7.87025 17.4516 7.8726C17.5008 7.8726 17.5477 7.87494 17.5945 7.87963C17.5312 7.87025 17.4703 7.86322 17.407 7.85385C17.5008 7.86791 17.5898 7.89135 17.6789 7.9265C17.6227 7.90307 17.5664 7.87963 17.5102 7.85619C17.5664 7.88197 17.6203 7.90775 17.6719 7.94291C17.7352 7.9851 17.7422 8.03197 17.6273 7.90541C17.6484 7.9265 17.6742 7.94525 17.6953 7.96635C17.7047 7.97572 17.7586 8.02963 17.7562 8.03432C17.7562 8.03432 17.6367 7.86322 17.7188 7.98978C17.7516 8.04135 17.7797 8.09525 17.8055 8.1515C17.782 8.09525 17.7586 8.039 17.7352 7.98275C17.7703 8.06947 17.7937 8.16088 17.8078 8.25463C17.7984 8.19135 17.7914 8.13041 17.782 8.06713C17.7961 8.19135 17.7891 8.31791 17.7891 8.44447V9.18041V11.6226V14.6226V17.2148C17.7891 17.6367 17.7797 18.0562 17.7891 18.4781V18.4968C17.7891 18.8648 18.1125 19.2163 18.4922 19.1999C18.8742 19.1835 19.1953 18.8906 19.1953 18.4968C19.1953 17.9835 19.1953 17.4703 19.1953 16.957C19.1953 15.8156 19.1953 14.6742 19.1953 13.5351C19.1953 12.3656 19.1953 11.1937 19.1953 10.0242C19.1953 9.42182 19.1977 8.81947 19.1953 8.21713C19.1906 7.25853 18.4219 6.48275 17.4633 6.47103C17.3367 6.46869 17.2125 6.47103 17.0859 6.47103C16.3219 6.47103 15.5555 6.47103 14.7914 6.47103C13.6266 6.47103 12.4617 6.47103 11.2945 6.47103C10.0711 6.47103 8.84766 6.47103 7.62422 6.47103C6.68437 6.47103 5.74453 6.47103 4.80234 6.47103C4.2 6.47103 3.51562 6.39135 2.97422 6.70307C2.43984 7.0101 2.11641 7.59135 2.10938 8.20072V8.32025V9.1265V12.2578V15.9117V18.2953V18.4828C2.11172 18.921 2.27109 19.3218 2.55469 19.6523C2.90859 20.0648 3.43125 20.2265 3.95859 20.2265H5.80781H9.10781H12.832H15.9539C16.4508 20.2265 16.95 20.2288 17.4469 20.2265C18.4055 20.2218 19.1812 19.4578 19.1977 18.4968C19.2023 18.1288 18.8695 17.7773 18.4945 17.7937C18.1055 17.8124 17.7961 18.1031 17.7891 18.4968Z" fill="black"/>
<path d="M6.49141 7.17227C6.49141 6.87695 6.49141 6.58164 6.49141 6.28867C6.49141 5.98633 6.46562 5.66992 6.49844 5.36992C6.48906 5.4332 6.48203 5.49414 6.47266 5.55742C6.48672 5.46367 6.51016 5.37695 6.54766 5.29023C6.52422 5.34648 6.50078 5.40273 6.47734 5.45898C6.50312 5.40273 6.53359 5.35117 6.56641 5.29961C6.62266 5.2082 6.46328 5.41211 6.51953 5.3582C6.54063 5.33711 6.55937 5.31367 6.58047 5.29258C6.59922 5.27617 6.62031 5.25977 6.63672 5.24102C6.52656 5.36523 6.52422 5.32305 6.59219 5.27852C6.64375 5.2457 6.69766 5.21758 6.75391 5.1918C6.69766 5.21523 6.64141 5.23867 6.58516 5.26211C6.67188 5.22695 6.76094 5.20352 6.85469 5.18945C6.79141 5.19883 6.73047 5.20586 6.66719 5.21523C6.81953 5.19883 6.97891 5.2082 7.13125 5.2082H8.09219H11.3102H15.2172H18.5734C19.1055 5.2082 19.6375 5.20586 20.1672 5.2082C20.2164 5.2082 20.2633 5.21055 20.3102 5.21523C20.2469 5.20586 20.1859 5.19883 20.1227 5.18945C20.2164 5.20352 20.3055 5.22695 20.3922 5.26211C20.3359 5.23867 20.2797 5.21523 20.2234 5.1918C20.2797 5.21758 20.3312 5.24805 20.3828 5.27852C20.4742 5.33242 20.268 5.17539 20.3242 5.23164C20.3453 5.25273 20.3687 5.27148 20.3922 5.29258C20.4109 5.31133 20.425 5.33008 20.4437 5.34648C20.5258 5.42852 20.3477 5.19883 20.4062 5.29961C20.4367 5.35352 20.4695 5.40273 20.493 5.45898C20.4695 5.40273 20.4461 5.34648 20.4227 5.29023C20.4578 5.37695 20.4836 5.46602 20.4977 5.55742C20.4883 5.49414 20.4812 5.4332 20.4719 5.36992C20.4859 5.4918 20.4789 5.61836 20.4789 5.74258V6.46914V8.90195V11.8621V14.4121C20.4789 14.8129 20.4836 15.2137 20.4789 15.6145C20.4789 15.6613 20.4766 15.7082 20.4719 15.7527C20.4812 15.6895 20.4883 15.6285 20.4977 15.5652C20.4836 15.659 20.4602 15.748 20.4227 15.8371C20.4461 15.7809 20.4695 15.7246 20.493 15.6684C20.4672 15.7246 20.4391 15.7785 20.4062 15.8301C20.3617 15.8957 20.3195 15.8957 20.4437 15.7855C20.4227 15.8043 20.4016 15.8324 20.3805 15.8535C20.3711 15.8629 20.3172 15.9191 20.3125 15.9145C20.3148 15.9145 20.4836 15.7949 20.357 15.877C20.3055 15.9098 20.2516 15.9379 20.193 15.9613C20.2492 15.9379 20.3055 15.9145 20.3617 15.891C20.2844 15.9215 20.2047 15.9426 20.1203 15.9543C20.1836 15.9449 20.2445 15.9379 20.3078 15.9285C20.0031 15.9637 19.6844 15.9379 19.3797 15.9379C19.082 15.9379 18.7844 15.9379 18.4867 15.9379C18.1187 15.9379 17.7672 16.2613 17.7836 16.641C17.8 17.023 18.093 17.3441 18.4867 17.3441H20.0781C20.5773 17.3441 21.0742 17.1848 21.4164 16.8027C21.7187 16.4652 21.8828 16.0504 21.8852 15.5957C21.8875 14.8105 21.8852 14.0277 21.8852 13.2426C21.8852 11.848 21.8852 10.4512 21.8852 9.05664C21.8852 7.99258 21.8852 6.93086 21.8852 5.8668C21.8852 5.44727 21.8805 5.05117 21.6672 4.66211C21.3719 4.12305 20.7812 3.8043 20.1742 3.79492C20.125 3.79492 20.0781 3.79492 20.0289 3.79492C19.2367 3.79492 18.4445 3.79492 17.6523 3.79492C16.3047 3.79492 14.9594 3.79492 13.6117 3.79492C12.25 3.79492 10.8859 3.79492 9.52422 3.79492C8.68516 3.79492 7.84844 3.79492 7.00938 3.79492C6.94141 3.79492 6.87578 3.79492 6.80781 3.79492C6.35312 3.79727 5.92188 3.96602 5.59141 4.28008C5.22344 4.63164 5.07812 5.10977 5.07812 5.6043V6.53711V7.16758C5.07812 7.53555 5.40156 7.88711 5.78125 7.8707C6.17031 7.85898 6.49141 7.56602 6.49141 7.17227Z" fill="black"/>
</svg>
