<svg width="22" height="22" viewBox="0 0 22 22" fill="none" xmlns="http://www.w3.org/2000/svg">
<path fill-rule="evenodd" clip-rule="evenodd" d="M10.8333 21.6667C16.8164 21.6667 21.6667 16.8164 21.6667 10.8333C21.6667 4.85025 16.8164 0 10.8333 0C4.85025 0 0 4.85025 0 10.8333C0 16.8164 4.85025 21.6667 10.8333 21.6667ZM11.6458 7.58333C11.6458 7.13461 11.282 6.77083 10.8333 6.77083C10.3846 6.77083 10.0208 7.13461 10.0208 7.58333V10.0208H7.58333C7.13461 10.0208 6.77083 10.3846 6.77083 10.8333C6.77083 11.282 7.13461 11.6458 7.58333 11.6458H10.0208V14.0833C10.0208 14.532 10.3846 14.8958 10.8333 14.8958C11.282 14.8958 11.6458 14.532 11.6458 14.0833V11.6458H14.0833C14.532 11.6458 14.8958 11.282 14.8958 10.8333C14.8958 10.3846 14.532 10.0208 14.0833 10.0208H11.6458V7.58333Z" fill="white"/>
</svg>
