<svg width="21" height="20" viewBox="0 0 21 20" fill="none" xmlns="http://www.w3.org/2000/svg">
<path d="M14.9437 9.51099C14.4328 9.51099 13.9453 9.58599 13.4812 9.72661C12.0047 8.5313 10.1625 7.87036 8.25937 7.87036C3.70781 7.87036 0 11.5266 0 16.0266V16.5188H10.2234C10.9828 18.3891 12.8109 19.711 14.9484 19.711C17.7563 19.711 20.0437 17.4235 20.0437 14.611C20.0391 11.7985 17.7516 9.51099 14.9437 9.51099ZM10.1391 12.9094C10.1344 12.9235 10.125 12.9422 10.1203 12.9563C10.0922 13.0454 10.0641 13.1344 10.0359 13.2235C10.0172 13.2891 10.0031 13.35 9.98438 13.4157C9.96094 13.5047 9.94219 13.5985 9.92344 13.6875C9.90469 13.7954 9.88594 13.9032 9.87188 14.0157C9.86719 14.0625 9.8625 14.1094 9.85781 14.1563C9.84375 14.3063 9.83437 14.4563 9.83437 14.6063C9.83437 14.9204 9.86719 15.2297 9.92344 15.5297H0.998438C1.25625 11.8079 4.41094 8.85474 8.25469 8.85474C9.75938 8.85474 11.2172 9.3188 12.4406 10.1719C11.3766 10.7719 10.5562 11.7422 10.1391 12.9094ZM14.9437 18.7219C13.2562 18.7219 11.8078 17.7 11.1703 16.2422L11.0484 15.8672C10.9406 15.5344 10.875 15.225 10.8469 14.925C10.8375 14.8172 10.8328 14.7141 10.8328 14.6016C10.8328 14.475 10.8422 14.3532 10.8516 14.2313C10.8562 14.1844 10.8609 14.1329 10.8703 14.086C10.8797 14.0157 10.8891 13.95 10.9031 13.8844C10.9172 13.8188 10.9266 13.7579 10.9406 13.6922C10.95 13.6547 10.9594 13.6219 10.9687 13.5844C11.3062 12.2954 12.2625 11.2172 13.5656 10.7485L13.8609 10.6407C14.2078 10.5469 14.5687 10.4907 14.9484 10.4907C17.2172 10.4907 19.0594 12.3329 19.0594 14.6016C19.0547 16.875 17.2078 18.7219 14.9437 18.7219Z" fill="white"/>
<path d="M16.0316 12.825L14.9441 13.9125L13.8566 12.825L13.1582 13.5187L14.2457 14.6062L13.1582 15.6984L13.8566 16.3921L14.9441 15.3046L16.0316 16.3921L16.7254 15.6984L15.6379 14.6062L16.7254 13.5187L16.0316 12.825Z" fill="white"/>
<path d="M4.54688 3.66094C4.54688 5.68125 6.21094 7.32188 8.25469 7.32188C10.2984 7.32188 11.9625 5.68125 11.9625 3.66094C11.9625 1.64063 10.2984 0 8.25469 0C6.21094 0 4.54688 1.64063 4.54688 3.66094ZM10.9734 3.66094C10.9734 5.1375 9.75 6.3375 8.25 6.3375C6.75 6.3375 5.52656 5.1375 5.52656 3.66094C5.52656 2.18438 6.75 0.984375 8.25 0.984375C9.75 0.984375 10.9734 2.18438 10.9734 3.66094Z" fill="white"/>
</svg>
