<svg width="20" height="20" viewBox="0 0 20 20" fill="none" xmlns="http://www.w3.org/2000/svg">
<g clip-path="url(#clip0_3135_7190)">
<path d="M18.4592 12.5635C18.1841 12.5635 17.9611 12.7865 17.9611 13.0616V17.4843C17.9601 18.3092 17.2918 18.9778 16.4668 18.9786H2.49052C1.66553 18.9778 0.99718 18.3092 0.996207 17.4843V4.50419C0.99718 3.6794 1.66553 3.01085 2.49052 3.00988H6.91313C7.18826 3.00988 7.41124 2.7869 7.41124 2.51178C7.41124 2.23685 7.18826 2.01367 6.91313 2.01367H2.49052C1.11567 2.01523 0.00155657 3.12935 0 4.50419V17.4845C0.00155657 18.8593 1.11567 19.9734 2.49052 19.975H16.4668C17.8416 19.9734 18.9558 18.8593 18.9573 17.4845V13.0616C18.9573 12.7865 18.7343 12.5635 18.4592 12.5635Z" fill="#3C2F8F"/>
<path d="M18.7597 0.732706C17.8843 -0.142673 16.4651 -0.142673 15.5898 0.732706L6.70328 9.61919C6.64238 9.68009 6.59841 9.75558 6.57545 9.83847L5.40685 14.0574C5.35879 14.2303 5.40763 14.4156 5.53449 14.5426C5.66154 14.6695 5.84677 14.7183 6.01975 14.6705L10.2386 13.5017C10.3215 13.4787 10.397 13.4347 10.4579 13.3738L19.3442 4.48716C20.2182 3.6112 20.2182 2.19316 19.3442 1.3172L18.7597 0.732706ZM7.7886 9.94295L15.0615 2.66986L17.4071 5.01542L10.134 12.2885L7.7886 9.94295ZM7.32007 10.8831L9.19399 12.7572L6.60191 13.4754L7.32007 10.8831ZM18.6399 3.78281L18.1116 4.31107L15.7658 1.96532L16.2943 1.43706C16.7805 0.95082 17.5689 0.95082 18.0552 1.43706L18.6399 2.02155C19.1253 2.50837 19.1253 3.29619 18.6399 3.78281Z" fill="#3C2F8F"/>
</g>
<defs>
<clipPath id="clip0_3135_7190">
<rect width="20" height="20" fill="white"/>
</clipPath>
</defs>
</svg>
